# xmcd
#
# Track frame offsets:
#	150
#	12082
#	29967
#	46020
#	62355
#	76380
#	92785
#	109377
#	121707
#	134310
#	151207
#
# Disc length: 2217 seconds
#
# Revision: 0
# Processed by: cddbd v1.5.2PL0 Copyright (c) Steve Scherf et al.
# Submitted via: EasyCDDAExtractor 7.1.2.1
#
DISCID=8308a70b
DTITLE=Joe Diffie - Epic Hits Disc
DYEAR=1996
DGENRE=Country
TTITLE0=C-O-U-N-T-R-Y
TTITLE1=Bigger Than The Beatles
TTITLE2=So Help Me Girl
TTITLE3=Pickup Man
TTITLE4=Third Rock From The Sun
TTITLE5=John Deere Green
TTITLE6=Ships That Don't Come In
TTITLE7=New Way (To Light Up And Old Flame)
TTITLE8=If The Devil Danced (In Empty Pockets)
TTITLE9=If You Want Me To
TTITLE10=Home
EXTD=
EXTT0=
EXTT1=
EXTT2=
EXTT3=
EXTT4=
EXTT5=
EXTT6=
EXTT7=
EXTT8=
EXTT9=
EXTT10=
PLAYORDER=
